<svg xmlns="http://www.w3.org/2000/svg" width="192" height="192" viewBox="0 0 192 192">
  <defs>
    <linearGradient id="brand" x1="0" y1="0" x2="1" y2="1">
      <stop offset="0%" stop-color="#00a884"/>
      <stop offset="100%" stop-color="#006d57"/>
    </linearGradient>
    <radialGradient id="topGlow" cx="50%" cy="40%" r="65%">
      <stop offset="0%" stop-color="#ffffff" stop-opacity="0.18"/>
      <stop offset="60%" stop-color="#ffffff" stop-opacity="0"/>
    </radialGradient>
  </defs>
  <rect width="192" height="192" rx="42" fill="url(#brand)"/>
  <rect width="192" height="192" rx="42" fill="url(#topGlow)"/>

  <path d="
    M 91.875 89.25
    Q 96 84.75 100.125 89.25
    L 117 107.25
    L 117 125.25
    Q 117 132.75 109.5 132.75
    L 105 132.75
    L 105 119.25
    Q 105 115.5 101.25 115.5
    L 90.75 115.5
    Q 87 115.5 87 119.25
    L 87 132.75
    L 82.5 132.75
    Q 75 132.75 75 125.25
    L 75 107.25
    Z
  " fill="#ffffff"/>

  <circle cx="96"  cy="51"  r="11" fill="#ffffff" fill-opacity="0.92"/>
  <circle cx="145" cy="134" r="11" fill="#ffffff" fill-opacity="0.92"/>
  <circle cx="47"  cy="134" r="11" fill="#ffffff" fill-opacity="0.92"/>
</svg>
