<svg xmlns="http://www.w3.org/2000/svg" width="192" height="192" viewBox="0 0 192 192">
  <defs>
    <linearGradient id="brand" x1="0" y1="0" x2="1" y2="1">
      <stop offset="0%" stop-color="#00a884"/>
      <stop offset="100%" stop-color="#006d57"/>
    </linearGradient>
    <radialGradient id="topGlow" cx="50%" cy="40%" r="65%">
      <stop offset="0%" stop-color="#ffffff" stop-opacity="0.18"/>
      <stop offset="60%" stop-color="#ffffff" stop-opacity="0"/>
    </radialGradient>
  </defs>
  <rect width="192" height="192" rx="42" fill="url(#brand)"/>
  <rect width="192" height="192" rx="42" fill="url(#topGlow)"/>

  <g fill="#ffffff">
    <path d="M 96 81 L 67 109 L 124 109 Z"/>
    <path d="M 74 107
             L 117 107
             L 117 134
             Q 117 138 113 138
             L 78 138
             Q 74 138 74 134 Z"/>
  </g>
  <path d="M 89 124
           Q 89 118 96 118
           Q 103 118 103 124
           L 103 138
           L 89 138 Z"
        fill="url(#brand)"/>

  <circle cx="96"  cy="51"  r="11" fill="#ffffff" fill-opacity="0.92"/>
  <circle cx="145" cy="134" r="11" fill="#ffffff" fill-opacity="0.92"/>
  <circle cx="47"  cy="134" r="11" fill="#ffffff" fill-opacity="0.92"/>
</svg>
